#N canvas 0 23 1440 781 10;
#X obj 319 456 loadbang;
#X obj 226 67 r bela_digitalIn11;
#X obj 380 604 dac~;
#X obj 134 292 nbx 5 14 -1e+37 1e+37 0 0 empty empty empty 0 -8 0 10
-262144 -1 -1 0 256;
#X text 43 291 frequency;
#X obj 134 186 loadbang;
#X floatatom 134 342 6 0 0 0 - - -, f 6;
#X obj 133 440 osc~ 440;
#X obj 202 513 *~;
#X obj 202 564 *~ 0.5;
#X obj 223 440 tgl 15 0 empty empty empty 17 7 0 10 -262144 -1 -1 0
1;
#X obj 311 192 snapshot~;
#X floatatom 311 221 5 0 0 0 - - -, f 5;
#X obj 311 122 adc~ 3 4;
#X obj 420 192 snapshot~;
#X floatatom 420 222 5 0 0 0 - - -, f 5;
#X obj 420 121 metro 20;
#X obj 420 49 loadbang;
#X obj 420 98 tgl 15 0 empty empty empty 17 7 0 10 -262144 -1 -1 1
1;
#X msg 420 74 1;
#X obj 264 348 loadbang;
#X msg 264 384 0;
#X msg 134 244 440;
#X obj 568 289 nbx 5 14 -1e+37 1e+37 0 0 empty empty empty 0 -8 0 10
-262144 -1 -1 0 256;
#X text 477 288 frequency;
#X obj 559 194 loadbang;
#X floatatom 568 339 6 0 0 0 - - -, f 6;
#X obj 567 437 osc~ 440;
#X obj 636 510 *~;
#X obj 636 561 *~ 0.5;
#X obj 657 437 tgl 15 0 empty empty empty 17 7 0 10 -262144 -1 -1 0
1;
#X obj 698 351 loadbang;
#X msg 698 381 0;
#X msg 568 241 440;
#X obj 660 64 r bela_digitalIn12;
#X obj 311 158 *~ 880;
#X obj 420 158 *~ 880;
#X obj 319 560 s bela_setDigital;
#X msg 319 496 in 11 \, in 12 \, out 13 \, out 14;
#X obj 211 675 s bela_digitalOut13;
#X obj 495 671 s bela_digitalOut14;
#X connect 0 0 38 0;
#X connect 1 0 10 0;
#X connect 3 0 6 0;
#X connect 5 0 22 0;
#X connect 6 0 7 0;
#X connect 7 0 8 0;
#X connect 8 0 9 0;
#X connect 9 0 2 0;
#X connect 9 0 2 1;
#X connect 10 0 8 1;
#X connect 10 0 39 0;
#X connect 11 0 12 0;
#X connect 11 0 3 0;
#X connect 13 0 35 0;
#X connect 13 1 36 0;
#X connect 14 0 15 0;
#X connect 14 0 23 0;
#X connect 16 0 11 0;
#X connect 16 0 14 0;
#X connect 17 0 19 0;
#X connect 18 0 16 0;
#X connect 19 0 18 0;
#X connect 20 0 21 0;
#X connect 21 0 10 0;
#X connect 22 0 3 0;
#X connect 23 0 26 0;
#X connect 25 0 33 0;
#X connect 26 0 27 0;
#X connect 27 0 28 0;
#X connect 28 0 29 0;
#X connect 29 0 2 1;
#X connect 29 0 2 0;
#X connect 30 0 28 1;
#X connect 30 0 40 0;
#X connect 31 0 32 0;
#X connect 32 0 30 0;
#X connect 33 0 23 0;
#X connect 34 0 30 0;
#X connect 35 0 11 0;
#X connect 36 0 14 0;
#X connect 38 0 37 0;
